{
    "asset" : {
        "generator" : "Khronos glTF Blender I/O v0.9.36",
        "version" : "2.0"
    },
    "scene" : 0,
    "scenes" : [
        {
            "name" : "Scene",
            "nodes" : [
                0
            ]
        }
    ],
    "nodes" : [
        {
            "mesh" : 0,
            "name" : "Helmet"
        }
    ],
    "meshes" : [
        {
            "name" : "Helmet",
            "primitives" : [
                {
                    "attributes" : {
                        "POSITION" : 0,
                        "NORMAL" : 1,
                        "TEXCOORD_0" : 2,
                        "TEXCOORD_1" : 3,
                        "JOINTS_0" : 4,
                        "WEIGHTS_0" : 5
                    },
                    "indices" : 6
                }
            ]
        }
    ],
    "accessors" : [
        {
            "bufferView" : 0,
            "componentType" : 5126,
            "count" : 7432,
            "max" : [
                0.13960100710391998,
                2.0957798957824707,
                -0.8473159074783325
            ],
            "min" : [
                -0.1376360058784485,
                1.7139300107955933,
                -1.1520079374313354
            ],
            "type" : "VEC3"
        },
        {
            "bufferView" : 1,
            "componentType" : 5126,
            "count" : 7432,
            "type" : "VEC3"
        },
        {
            "bufferView" : 2,
            "componentType" : 5126,
            "count" : 7432,
            "type" : "VEC2"
        },
        {
            "bufferView" : 3,
            "componentType" : 5126,
            "count" : 7432,
            "type" : "VEC2"
        },
        {
            "bufferView" : 4,
            "componentType" : 5123,
            "count" : 7432,
            "type" : "VEC4"
        },
        {
            "bufferView" : 5,
            "componentType" : 5126,
            "count" : 7432,
            "type" : "VEC4"
        },
        {
            "bufferView" : 6,
            "componentType" : 5123,
            "count" : 38844,
            "type" : "SCALAR"
        }
    ],
    "bufferViews" : [
        {
            "buffer" : 0,
            "byteLength" : 89184,
            "byteOffset" : 0
        },
        {
            "buffer" : 0,
            "byteLength" : 89184,
            "byteOffset" : 89184
        },
        {
            "buffer" : 0,
            "byteLength" : 59456,
            "byteOffset" : 178368
        },
        {
            "buffer" : 0,
            "byteLength" : 59456,
            "byteOffset" : 237824
        },
        {
            "buffer" : 0,
            "byteLength" : 59456,
            "byteOffset" : 297280
        },
        {
            "buffer" : 0,
            "byteLength" : 118912,
            "byteOffset" : 356736
        },
        {
            "buffer" : 0,
            "byteLength" : 77688,
            "byteOffset" : 475648
        }
    ],
    "buffers" : [
        {
            "byteLength" : 553336,
            "uri" : "data:application/octet-stream;base64,"
        }
    ]
}
